<?xml version="1.0" encoding="utf-8"?>
<!-- Generator: Adobe Illustrator 27.2.0, SVG Export Plug-In . SVG Version: 6.00 Build 0)  -->
<svg version="1.1" xmlns="http://www.w3.org/2000/svg" xmlns:xlink="http://www.w3.org/1999/xlink" x="0px" y="0px"
	 viewBox="0 0 196.68 174.93" style="enable-background:new 0 0 196.68 174.93;" xml:space="preserve">
<style type="text/css">
	.st0{fill:#833FE9;}
</style>
<g id="Logo-02">
</g>
<g id="Logo-01">
</g>
<g id="HQ">
	<g>
		<g>
			<g>
				<g>
					<polygon class="st0" points="196.68,82.86 196.68,144.25 143.52,174.93 90.37,144.25 90.37,113.54 106.32,104.33 
						106.32,135.04 143.52,156.52 180.73,135.04 180.73,92.07 143.52,70.59 106.32,92.07 90.37,101.27 53.16,122.76 0,92.07 
						0,30.69 53.16,0 106.32,30.69 106.32,61.39 90.37,70.6 90.37,39.9 53.16,18.42 15.94,39.9 15.94,82.86 53.16,104.35 
						90.37,82.86 106.32,73.66 143.52,52.18 					"/>
				</g>
				<path class="st0" d="M44.41,61.02v18.43c0,0.82-0.15,1.59-0.46,2.31c-0.31,0.72-0.73,1.34-1.27,1.87
					c-0.54,0.53-1.18,0.94-1.91,1.24c-0.73,0.29-1.51,0.44-2.33,0.44c-0.82,0-1.59-0.15-2.31-0.44c-0.72-0.29-1.35-0.71-1.89-1.24
					c-0.54-0.53-0.97-1.15-1.27-1.87c-0.31-0.72-0.46-1.49-0.46-2.31v-33.3c0-0.78,0.14-1.52,0.42-2.24
					c0.28-0.72,0.68-1.36,1.2-1.92c0.52-0.56,1.14-1.02,1.87-1.36c0.73-0.34,1.54-0.51,2.44-0.51c1.79,0,3.35,0.74,4.7,2.22
					l19.42,21.61V45.94c0-0.82,0.16-1.59,0.48-2.3c0.32-0.71,0.75-1.32,1.31-1.85c0.55-0.53,1.19-0.94,1.92-1.24
					c0.73-0.29,1.51-0.44,2.33-0.44c0.82,0,1.59,0.15,2.29,0.44c0.71,0.29,1.32,0.71,1.85,1.24c0.53,0.53,0.95,1.15,1.25,1.85
					c0.31,0.71,0.46,1.47,0.46,2.3v33.51c0,0.8-0.15,1.56-0.44,2.28c-0.29,0.72-0.71,1.34-1.24,1.87c-0.53,0.53-1.17,0.95-1.91,1.25
					c-0.74,0.31-1.56,0.46-2.45,0.46h-0.39c-0.78-0.07-1.47-0.29-2.07-0.67c-0.6-0.38-1.16-0.91-1.68-1.59L44.41,61.02z"/>
				<path class="st0" d="M146.83,121.5c-0.7,0.37-1.43,0.55-2.2,0.55c-0.76,0-1.57-0.22-2.41-0.66c-0.85-0.44-1.53-1.08-2.05-1.91
					l-6.64-7.44v18.56c0,0.83-0.15,1.62-0.46,2.34c-0.31,0.73-0.74,1.36-1.29,1.9c-0.55,0.54-1.19,0.95-1.93,1.25
					s-1.52,0.45-2.36,0.45c-0.83,0-1.61-0.15-2.34-0.45c-0.73-0.3-1.36-0.72-1.91-1.25c-0.55-0.54-0.98-1.17-1.29-1.9
					c-0.31-0.73-0.46-1.51-0.46-2.34v-33.9c0-0.83,0.15-1.61,0.46-2.32c0.31-0.72,0.74-1.34,1.29-1.88
					c0.55-0.54,1.19-0.96,1.93-1.27c0.74-0.31,1.52-0.47,2.36-0.47c0.76,0,1.51,0.14,2.25,0.43c0.74,0.29,1.42,0.71,2.04,1.29
					l12.89,14.55l12.85-14.55c0.62-0.57,1.3-1,2.04-1.29c0.74-0.29,1.49-0.43,2.25-0.43c0.83,0,1.61,0.15,2.34,0.45
					c0.73,0.3,1.36,0.71,1.91,1.25s0.98,1.17,1.29,1.9c0.31,0.73,0.46,1.51,0.46,2.34v33.9c0,0.83-0.16,1.62-0.46,2.34
					c-0.31,0.73-0.74,1.36-1.29,1.9s-1.18,0.95-1.91,1.25c-0.73,0.3-1.51,0.45-2.34,0.45s-1.61-0.15-2.34-0.45
					c-0.73-0.3-1.36-0.72-1.89-1.25c-0.54-0.54-0.96-1.17-1.29-1.9c-0.32-0.73-0.48-1.51-0.48-2.34v-18.52l-7.25,8.15
					C148.12,120.71,147.53,121.13,146.83,121.5z"/>
			</g>
		</g>
	</g>
</g>
</svg>
